<?xml version="1.0" encoding="utf-8"?>
<!-- Generator: Adobe Illustrator 16.0.2, SVG Export Plug-In . SVG Version: 6.00 Build 0)  -->
<!DOCTYPE svg PUBLIC "-//W3C//DTD SVG 1.1//EN" "http://www.w3.org/Graphics/SVG/1.1/DTD/svg11.dtd">
<svg version="1.1" id="Layer_1" xmlns="http://www.w3.org/2000/svg" xmlns:xlink="http://www.w3.org/1999/xlink" x="0px" y="0px"
	 width="200px" height="200px" viewBox="-107.86 594.14 200 200" enable-background="new -107.86 594.14 200 200"
	 xml:space="preserve">
<g>
	<path d="M24.526,714.017c-0.702,2.527-3.431,4.411-6.064,4.191l-66.627-5.579c-2.633-0.223-4.247-2.477-3.587-5.013l25.124-96.436
		c0.661-2.536,3.35-4.376,5.978-4.088l67.872,7.424c2.627,0.287,4.203,2.59,3.501,5.115L24.526,714.017z"/>
	<path fill="none" stroke="#000000" stroke-width="12" stroke-linecap="round" stroke-miterlimit="10" d="M24.526,714.017
		c-0.702,2.527-3.431,4.411-6.064,4.191l-66.627-5.579c-2.633-0.223-4.247-2.477-3.587-5.013l25.124-96.436
		c0.661-2.536,3.35-4.376,5.978-4.088l67.872,7.424c2.627,0.287,4.203,2.59,3.501,5.115L24.526,714.017z"/>
</g>
<g>
	<path fill="none" stroke="#000000" stroke-width="12" stroke-linecap="round" stroke-miterlimit="10" d="M54.786,667.957
		l-11.841,45.851c-3.276,12.686-16.737,22.213-29.91,21.175l-63.998-5.055c-13.173-1.04-21.32-12.285-18.105-24.986l12.849-50.769"
		/>
</g>
<line fill="none" stroke="#000000" stroke-width="12" stroke-linecap="round" stroke-miterlimit="10" x1="-19.289" y1="732.966" x2="-19.289" y2="779.182"/>
<line fill="none" stroke="#000000" stroke-width="12" stroke-linecap="round" stroke-miterlimit="10" x1="-51.151" y1="780.544" x2="11.736" y2="780.544"/>
<polygon fill="#4FA0CA" stroke="#FFFFFF" stroke-width="3" stroke-miterlimit="10" points="54.624,634.287 20.374,630.405 
	22.25,623.002 56.477,626.735 "/>
<polygon fill="#4FA0CA" stroke="#FFFFFF" stroke-width="3" stroke-miterlimit="10" points="51.146,646.229 17.238,642.339 
	19.116,634.938 53.001,638.677 "/>
<polygon fill="#4FA0CA" stroke="#FFFFFF" stroke-width="3" stroke-miterlimit="10" points="48.948,658.137 14.699,654.256 
	16.577,646.853 50.804,650.585 "/>
<polygon fill="#4FA0CA" stroke="#FFFFFF" stroke-width="3" stroke-miterlimit="10" points="45.524,670.079 11.275,666.197 
	13.152,658.793 47.38,662.527 "/>
<polygon fill="#4FA0CA" stroke="#FFFFFF" stroke-width="3" stroke-miterlimit="10" points="42.724,682.008 8.476,678.125 
	10.353,670.722 44.58,674.456 "/>
<polygon fill="#4FA0CA" stroke="#FFFFFF" stroke-width="3" stroke-miterlimit="10" points="39.53,693.944 5.28,690.06 
	7.157,682.661 41.384,686.393 "/>
<polygon fill="#4FA0CA" stroke="#FFFFFF" stroke-width="3" stroke-miterlimit="10" points="-5.145,627.821 -38.728,623.73 
	-36.878,616.339 -3.316,620.281 "/>
<polygon fill="#4FA0CA" stroke="#FFFFFF" stroke-width="3" stroke-miterlimit="10" points="-8.914,639.749 -42.156,635.65 
	-40.307,628.261 -7.087,632.207 "/>
<polygon fill="#4FA0CA" stroke="#FFFFFF" stroke-width="3" stroke-miterlimit="10" points="-12.066,651.666 -45.309,647.568 
	-43.458,640.178 -10.239,644.124 "/>
<polygon fill="#4FA0CA" stroke="#FFFFFF" stroke-width="3" stroke-miterlimit="10" points="-15.416,663.586 -48.051,659.497 
	-46.232,652.105 -13.62,656.044 "/>
<polygon fill="#4FA0CA" stroke="#FFFFFF" stroke-width="3" stroke-miterlimit="10" points="-18.539,675.501 -51.441,671.402 
	-49.591,664.012 -16.712,667.961 "/>
<polygon fill="#4FA0CA" stroke="#FFFFFF" stroke-width="3" stroke-miterlimit="10" points="-22.031,687.425 -54.591,683.32 
	-52.742,675.93 -20.204,679.884 "/>
</svg>
